<svg xmlns="http://www.w3.org/2000/svg" width="47" height="32"
    viewBox="0 0 47 32" fill="none">
    <path
        d="M18.8 22.8571L30.9965 16L18.8 9.14286V22.8571ZM45.966 4.96C46.2715 6.03429 46.483 7.47429 46.624 9.30286C46.7885 11.1314 46.859 12.7086 46.859 14.08L47 16C47 21.0057 46.624 24.6857 45.966 27.04C45.3785 29.0971 44.0155 30.4229 41.9005 30.9943C40.796 31.2914 38.775 31.4971 35.673 31.6343C32.618 31.7943 29.8215 31.8629 27.2365 31.8629L23.5 32C13.6535 32 7.52 31.6343 5.0995 30.9943C2.9845 30.4229 1.6215 29.0971 1.034 27.04C0.7285 25.9657 0.517 24.5257 0.376 22.6971C0.2115 20.8686 0.141 19.2914 0.141 17.92L0 16C0 10.9943 0.376 7.31429 1.034 4.96C1.6215 2.90286 2.9845 1.57714 5.0995 1.00571C6.204 0.708572 8.225 0.502857 11.327 0.365714C14.382 0.205714 17.1785 0.137143 19.7635 0.137143L23.5 0C33.3465 0 39.48 0.365714 41.9005 1.00571C44.0155 1.57714 45.3785 2.90286 45.966 4.96Z"
        fill="white" fill-opacity="0.6" />
</svg>