<svg class="btn__arrow" xmlns="http://www.w3.org/2000/svg" width="6" height="4"
    viewBox="0 0 6 4" fill="none">
    <path
        d="M2.8188 3.38601C2.64034 3.21307 2.64034 2.93268 2.8188 2.75974L5.03053 0.616453C5.20899 0.443512 5.49834 0.443512 5.6768 0.616453C5.85526 0.789394 5.85526 1.06979 5.6768 1.24273L3.46508 3.38601C3.28661 3.55895 2.99727 3.55895 2.8188 3.38601Z"
        fill="white" />
    <path
        d="M3.37071 3.38601C3.54917 3.21307 3.54917 2.93268 3.37071 2.75974L1.15899 0.616453C0.980525 0.443512 0.691179 0.443512 0.512715 0.616453C0.334252 0.789394 0.334252 1.06979 0.512715 1.24273L2.72444 3.38601C2.9029 3.55895 3.19225 3.55895 3.37071 3.38601Z"
        fill="white" />
</svg>