<svg width="24" height="36" viewBox="0 0 24 36" fill="none" xmlns="http://www.w3.org/2000/svg">
<rect x="10.9343" y="0.379028" width="2.10634" height="35.6209" rx="1.05317" fill="white"/>
<rect width="2.0981" height="14.2205" rx="1.04905" transform="matrix(0.501963 -0.864889 0.867154 0.498039 10.6157 1.81458)" fill="white"/>
<rect width="2.0981" height="14.2205" rx="1.04905" transform="matrix(-0.501963 -0.864889 -0.867154 0.498039 13.3845 1.81458)" fill="white"/>
<rect width="2.0981" height="14.2205" rx="1.04905" transform="matrix(0.501963 -0.864889 0.867154 0.498039 10.6157 10.9749)" fill="white"/>
<rect width="2.0981" height="14.2205" rx="1.04905" transform="matrix(-0.501963 -0.864889 -0.867154 0.498039 13.3845 10.9749)" fill="white"/>
<rect width="2.0981" height="14.2205" rx="1.04905" transform="matrix(0.501963 -0.864889 0.867154 0.498039 10.6157 20.1943)" fill="white"/>
<rect width="2.0981" height="14.2205" rx="1.04905" transform="matrix(-0.501963 -0.864889 -0.867154 0.498039 13.3845 20.1943)" fill="white"/>
<ellipse cx="21.1406" cy="34.5754" rx="1.4321" ry="1.42463" fill="white"/>
</svg>
