<svg xmlns="http://www.w3.org/2000/svg" width="48" height="28"
    viewBox="0 0 48 28" fill="none">
    <path
        d="M46.8994 1.89615C47.2348 0.802219 46.8994 0 45.3137 0H40.0606C38.724 0 38.1131 0.694002 37.7778 1.45623C37.7778 1.45623 35.1069 7.8528 31.3222 12.0003C30.1005 13.2072 29.5424 13.5883 28.8765 13.5883C28.5435 13.5883 28.0597 13.2072 28.0597 12.1133V1.89615C28.0597 0.583432 27.674 0 26.5601 0H18.3056C17.472 0 16.969 0.606957 16.969 1.18568C16.969 2.42783 18.8613 2.71484 19.0554 6.21543V13.8094C19.0554 15.4727 18.7512 15.7762 18.0804 15.7762C16.3007 15.7762 11.9698 9.35608 9.39953 2.00672C8.89889 0.578727 8.39347 0.0023535 7.05204 0.0023535H1.80134C0.299425 0.0023535 0 0.696354 0 1.45858C0 2.82776 1.77978 9.60309 8.29046 18.5639C12.6309 24.6829 18.7416 28 24.3085 28C27.6453 28 28.0573 27.2637 28.0573 25.9933V21.3682C28.0573 19.8955 28.3759 19.5991 29.4322 19.5991C30.2083 19.5991 31.545 19.9849 34.6614 22.9326C38.2209 26.4285 38.8102 27.9976 40.8104 27.9976H46.0611C47.5606 27.9976 48.3103 27.2613 47.8792 25.8074C47.4073 24.3606 45.7065 22.2551 43.4501 19.7637C42.2236 18.3428 40.3912 16.8136 39.833 16.0491C39.0545 15.0634 39.2797 14.6281 39.833 13.753C39.8354 13.7553 46.2335 4.90506 46.8994 1.89615Z"
        fill="white" fill-opacity="0.6" />
</svg>